<svg width="80" height="80" fill="none" xmlns="http://www.w3.org/2000/svg"><path d="M49.689 33.1c-2.628 0-5.18.51-7.584 1.514a1.563 1.563 0 001.204 2.884 16.463 16.463 0 016.38-1.273c9.132 0 16.562 7.43 16.562 16.563 0 9.132-7.43 16.562-16.562 16.562-9.133 0-16.563-7.43-16.563-16.562 0-2.208.427-4.352 1.269-6.37a1.563 1.563 0 10-2.884-1.204A19.573 19.573 0 0030 52.788c0 10.856 8.832 19.687 19.688 19.687 10.855 0 19.687-8.831 19.687-19.687 0-10.856-8.832-19.688-19.687-19.688z" fill="#939393"/><path d="M49.689 65.6c7.065 0 12.812-5.747 12.812-12.812 0-7.065-5.747-12.813-12.812-12.813-7.065 0-12.813 5.748-12.813 12.813S42.624 65.6 49.69 65.6zm0-22.5c5.341 0 9.687 4.346 9.687 9.688 0 5.341-4.346 9.687-9.687 9.687-5.342 0-9.688-4.346-9.688-9.687 0-5.342 4.346-9.688 9.688-9.688z" fill="#939393"/><path d="M72.076 25.6h-4.753l-5.456-9.232a1.562 1.562 0 00-1.345-.768H38.855c-.552 0-1.064.292-1.345.768L32.054 25.6h-8.929v-1.875A5.631 5.631 0 0017.5 18.1a5.631 5.631 0 00-5.625 5.625V25.6h-3.95C3.554 25.6 0 29.155 0 33.525V72.05c0 4.37 3.555 7.924 7.924 7.924h64.151c4.37 0 7.925-3.555 7.925-7.924V33.525c0-4.37-3.555-7.925-7.924-7.925zm-32.33-6.875H59.63l4.063 6.875H35.684l4.063-6.875zm-24.746 5c0-1.378 1.122-2.5 2.5-2.5s2.5 1.122 2.5 2.5V25.6h-5v-1.875zm61.875 48.326c0 2.646-2.153 4.8-4.8 4.8H7.926a4.805 4.805 0 01-4.8-4.8V33.525c0-2.647 2.153-4.8 4.8-4.8h64.15c2.647 0 4.8 2.153 4.8 4.8V72.05z" fill="#939393"/><path d="M49.689 49.74a3.05 3.05 0 013.047 3.048 1.562 1.562 0 103.125 0 6.179 6.179 0 00-6.172-6.172 1.563 1.563 0 000 3.125zm0-38.25c.863 0 1.562-.7 1.562-1.563v-8.34a1.563 1.563 0 00-3.125 0v8.34c0 .863.7 1.562 1.563 1.562zm7.434 0c.4 0 .8-.153 1.105-.458l5.733-5.733a1.563 1.563 0 00-2.21-2.21l-5.733 5.733a1.563 1.563 0 001.105 2.667zm-15.975-.458a1.558 1.558 0 002.21 0c.61-.61.61-1.6 0-2.21L37.625 3.09a1.563 1.563 0 00-2.21 2.21l5.733 5.733zM21.563 38.413h-8.125a1.563 1.563 0 000 3.125h8.124a1.562 1.562 0 100-3.125zm15.306 3.125c.41 0 .814-.168 1.105-.458.29-.29.458-.693.458-1.105 0-.41-.168-.814-.458-1.105a1.575 1.575 0 00-1.105-.457c-.41 0-.814.167-1.105.457a1.57 1.57 0 00-.458 1.105c0 .411.166.814.458 1.105.29.29.692.458 1.105.458z" fill="#939393"/></svg>